<svg xmlns="http://www.w3.org/2000/svg" xmlns:xlink="http://www.w3.org/1999/xlink" version="1.1" id="レイヤー_1" x="0" y="0" viewBox="0 0 1799.8 1199.8" xml:space="preserve" enable-background="new 0 0 1799.8 1199.8">
  <style type="text/css">
    
	.st0{
	  fill:none;
	  stroke:#000000;
	  stroke-width:3;
	  stroke-miterlimit:10;
	 }

  </style>
  <path class="st0" d="M755.5 316.5c0 0 1-16 15-16s244 0 244 0 15 0 15 16 0 247 0 247 -1 18-18 18 -236-1-236-1 -20 1-20-15S755.5 316.5 755.5 316.5z"/>
  <path class="st0" d="M775.5 328.5c0 0-1-4 4-4s224 0 224 0 3 0 3 5 2 222 2 222 1 5-4 5 -226 0-226 0 -3 2-3-5S775.5 328.5 775.5 328.5z"/>
  <line class="st0" x1="751.5" y1="618.5" x2="802.5" y2="618.5"/>
  <line class="st0" x1="802.5" y1="618.5" x2="802.5" y2="626.5"/>
  <line class="st0" x1="802.5" y1="626.5" x2="784.5" y2="626.5"/>
  <line class="st0" x1="784.5" y1="626.5" x2="784.5" y2="673.5"/>
  <line class="st0" x1="784.5" y1="673.5" x2="769.5" y2="673.5"/>
  <line class="st0" x1="769.5" y1="673.5" x2="769.5" y2="626.5"/>
  <line class="st0" x1="769.5" y1="626.5" x2="751.5" y2="626.5"/>
  <line class="st0" x1="751.5" y1="626.5" x2="751.5" y2="618.5"/>
  <line class="st0" x1="807.5" y1="618.5" x2="846.5" y2="618.5"/>
  <line class="st0" x1="846.5" y1="618.5" x2="846.5" y2="626.5"/>
  <line class="st0" x1="846.5" y1="626.5" x2="822.5" y2="626.5"/>
  <line class="st0" x1="822.5" y1="626.5" x2="822.5" y2="641.5"/>
  <line class="st0" x1="822.5" y1="641.5" x2="846.5" y2="641.5"/>
  <line class="st0" x1="846.5" y1="641.5" x2="846.5" y2="649.5"/>
  <line class="st0" x1="846.5" y1="649.5" x2="822.5" y2="649.5"/>
  <line class="st0" x1="822.5" y1="649.5" x2="822.5" y2="664.5"/>
  <line class="st0" x1="822.5" y1="664.5" x2="846.5" y2="664.5"/>
  <line class="st0" x1="846.5" y1="664.5" x2="846.5" y2="673.5"/>
  <line class="st0" x1="846.5" y1="673.5" x2="807.5" y2="673.5"/>
  <line class="st0" x1="807.5" y1="673.5" x2="807.5" y2="618.5"/>
  <path class="st0" d="M897.5 620.5c0 0-46-13-47 25s40.9 31.1 47 25c-2-7-2-6-2-6s-32 11-30-19 30-17 30-17L897.5 620.5z"/>
  <line class="st0" x1="902.5" y1="618.5" x2="918.5" y2="618.5"/>
  <line class="st0" x1="918.5" y1="618.5" x2="918.5" y2="641.5"/>
  <line class="st0" x1="918.5" y1="641.5" x2="940.5" y2="641.5"/>
  <line class="st0" x1="940.5" y1="641.5" x2="940.5" y2="618.5"/>
  <line class="st0" x1="940.5" y1="618.5" x2="955.5" y2="618.5"/>
  <line class="st0" x1="955.5" y1="618.5" x2="955.5" y2="673.5"/>
  <line class="st0" x1="955.5" y1="673.5" x2="940.5" y2="673.5"/>
  <line class="st0" x1="940.5" y1="673.5" x2="940.5" y2="649.5"/>
  <line class="st0" x1="940.5" y1="649.5" x2="918.5" y2="649.5"/>
  <line class="st0" x1="918.5" y1="649.5" x2="918.5" y2="673.5"/>
  <line class="st0" x1="918.5" y1="673.5" x2="902.5" y2="673.5"/>
  <line class="st0" x1="902.5" y1="673.5" x2="902.5" y2="618.5"/>
  <rect x="966.5" y="664.5" class="st0" width="10" height="9"/>
  <path class="st0" d="M1026.5 622.5c0 0-40-17-46 24 0.6 29.6 33 32 46 26v-9c-1.2-0.5-32.8 17.5-38-17 -1-27 38-24 38-18C1026.5 622.5 1026.5 622.5 1026.5 622.5z"/>
  <rect x="1036.5" y="663.5" class="st0" width="10" height="10"/>
</svg>
